<svg width="34" height="31" viewBox="0 0 34 31" fill="none" xmlns="http://www.w3.org/2000/svg">
<path fill-rule="evenodd" clip-rule="evenodd" d="M15.0367 0.809998H26.6667C27.9928 0.809998 29.2645 1.33678 30.2022 2.27446C31.1399 3.21215 31.6667 4.48392 31.6667 5.81C32.1087 5.81 32.5326 5.98559 32.8452 6.29815C33.1577 6.61071 33.3333 7.03464 33.3333 7.47666V10.81C33.3333 11.252 33.1577 11.6759 32.8452 11.9885C32.5326 12.3011 32.1087 12.4767 31.6667 12.4767V24.1433C31.6667 24.7284 31.5126 25.3032 31.2201 25.8099C30.9275 26.3167 30.5067 26.7374 30 27.03V28.31C30 28.973 29.7366 29.6089 29.2678 30.0778C28.7989 30.5466 28.163 30.81 27.5 30.81C26.837 30.81 26.2011 30.5466 25.7322 30.0778C25.2634 29.6089 25 28.973 25 28.31V27.4767H8.33333V28.31C8.33333 28.973 8.06994 29.6089 7.6011 30.0778C7.13226 30.5466 6.49638 30.81 5.83333 30.81C5.17029 30.81 4.53441 30.5466 4.06557 30.0778C3.59673 29.6089 3.33333 28.973 3.33333 28.31V27.03C2.82662 26.7374 2.40583 26.3167 2.11327 25.8099C1.82071 25.3032 1.66668 24.7284 1.66667 24.1433V12.4767C1.22464 12.4767 0.800716 12.3011 0.488155 11.9885C0.175595 11.6759 0 11.252 0 10.81V7.47666C0 7.03464 0.175595 6.61071 0.488155 6.29815C0.800716 5.98559 1.22464 5.81 1.66667 5.81C1.66667 4.48392 2.19345 3.21215 3.13113 2.27446C4.06882 1.33678 5.34058 0.809998 6.66667 0.809998H15.0367ZM16.03 4.14333H20.6367L18.51 8.39833C18.4041 8.59479 18.3387 8.81053 18.3177 9.03275C18.2967 9.25496 18.3206 9.47913 18.3879 9.69195C18.4552 9.90476 18.5645 10.1019 18.7095 10.2716C18.8544 10.4414 19.032 10.5803 19.2316 10.6801C19.4313 10.7799 19.6489 10.8386 19.8717 10.8527C20.0944 10.8668 20.3177 10.8361 20.5284 10.7622C20.739 10.6884 20.9327 10.573 21.0979 10.4228C21.263 10.2727 21.3964 10.091 21.49 9.88833L24.3633 4.14333H26.6667C27.1087 4.14333 27.5326 4.31893 27.8452 4.63149C28.1577 4.94405 28.3333 5.36797 28.3333 5.81V14.1433H5V5.81C5 5.36797 5.1756 4.94405 5.48816 4.63149C5.80072 4.31893 6.22464 4.14333 6.66667 4.14333H12.3033L10.1767 8.39833C9.99504 8.79152 9.9736 9.23996 10.1169 9.64868C10.2602 10.0574 10.557 10.3943 10.9443 10.588C11.3317 10.7817 11.7793 10.817 12.1923 10.6864C12.6052 10.5558 12.9511 10.2695 13.1567 9.88833L16.03 4.14333ZM6.66667 20.81C6.66667 20.368 6.84226 19.944 7.15482 19.6315C7.46738 19.3189 7.89131 19.1433 8.33333 19.1433H10C10.442 19.1433 10.866 19.3189 11.1785 19.6315C11.4911 19.944 11.6667 20.368 11.6667 20.81C11.6667 21.252 11.4911 21.6759 11.1785 21.9885C10.866 22.3011 10.442 22.4767 10 22.4767H8.33333C7.89131 22.4767 7.46738 22.3011 7.15482 21.9885C6.84226 21.6759 6.66667 21.252 6.66667 20.81ZM21.6667 20.81C21.6667 20.368 21.8423 19.944 22.1548 19.6315C22.4674 19.3189 22.8913 19.1433 23.3333 19.1433H25C25.442 19.1433 25.866 19.3189 26.1785 19.6315C26.4911 19.944 26.6667 20.368 26.6667 20.81C26.6667 21.252 26.4911 21.6759 26.1785 21.9885C25.866 22.3011 25.442 22.4767 25 22.4767H23.3333C22.8913 22.4767 22.4674 22.3011 22.1548 21.9885C21.8423 21.6759 21.6667 21.252 21.6667 20.81Z" fill="black"/>
</svg>
