<svg width="111" height="150" viewBox="0 0 111 150" fill="none" xmlns="http://www.w3.org/2000/svg">
<path fill-rule="evenodd" clip-rule="evenodd" d="M23.6843 0H75.0001L110.526 35.5263V126.316C110.526 128.41 109.695 130.418 108.214 131.898C106.734 133.379 104.725 134.211 102.632 134.211H23.6843C21.5905 134.211 19.5824 133.379 18.1019 131.898C16.6213 130.418 15.7896 128.41 15.7896 126.316V7.89474C15.7896 5.80092 16.6213 3.79286 18.1019 2.31231C19.5824 0.831764 21.5905 0 23.6843 0ZM98.6843 35.5263L75.0001 11.8421V31.5789C75.0001 32.6259 75.416 33.6299 76.1562 34.3702C76.8965 35.1104 77.9005 35.5263 78.9474 35.5263H98.6843ZM89.633 64.3145C90.373 65.0547 90.7887 66.0586 90.7887 67.1053C90.7887 68.152 90.373 69.1558 89.633 69.8961L55.2632 104.266L36.683 85.6855C35.9639 84.941 35.5661 83.9439 35.575 82.9089C35.584 81.874 35.9992 80.8839 36.7311 80.152C37.4629 79.4202 38.453 79.005 39.488 78.996C40.523 78.987 41.5201 79.3849 42.2646 80.1039L55.2632 93.1026L84.0514 64.3145C84.7916 63.5745 85.7955 63.1587 86.8422 63.1587C87.8889 63.1587 88.8927 63.5745 89.633 64.3145Z" fill="#27ABC1"/>
<path d="M7.89474 23.6842H0V130.263C0 135.498 2.07941 140.518 5.78079 144.219C9.48216 147.921 14.5023 150 19.7368 150H94.7368V142.105H19.7368C16.5961 142.105 13.584 140.858 11.3632 138.637C9.14238 136.416 7.89474 133.404 7.89474 130.263V23.6842Z" fill="#27ABC1"/>
</svg>
