<svg width="40" height="37" viewBox="0 0 40 37" fill="none" xmlns="http://www.w3.org/2000/svg">
<path d="M20 16.4235H22.8571V19.2806H20V16.4235ZM25.7143 16.4235H28.5714V19.2806H25.7143V16.4235ZM31.4286 16.4235H34.2857V19.2806H31.4286V16.4235ZM20 22.1377H22.8571V24.9949H20V22.1377ZM25.7143 22.1377H28.5714V24.9949H25.7143V22.1377ZM31.4286 22.1377H34.2857V24.9949H31.4286V22.1377ZM20 27.852H22.8571V30.7092H20V27.852ZM25.7143 27.852H28.5714V30.7092H25.7143V27.852ZM31.4286 27.852H34.2857V30.7092H31.4286V27.852ZM20 10.7092H34.2857V13.5663H20V10.7092Z" fill="#27ABC1"/>
<path d="M37.1429 4.99488H17.1429V3.56631C17.1421 2.80878 16.8408 2.08249 16.3052 1.54684C15.7695 1.01119 15.0432 0.709924 14.2857 0.709167H8.57143C7.8139 0.709924 7.08761 1.01119 6.55196 1.54684C6.0163 2.08249 5.71504 2.80878 5.71429 3.56631V4.99488H2.85714C2.09961 4.99564 1.37333 5.2969 0.837673 5.83256C0.302019 6.36821 0.000756395 7.0945 0 7.85202V33.5663C0.000756395 34.3238 0.302019 35.0501 0.837673 35.5858C1.37333 36.1214 2.09961 36.4227 2.85714 36.4235H37.1429C37.9004 36.4227 38.6267 36.1214 39.1623 35.5858C39.698 35.0501 39.9992 34.3238 40 33.5663V7.85202C39.9992 7.0945 39.698 6.36821 39.1623 5.83256C38.6267 5.2969 37.9004 4.99564 37.1429 4.99488ZM8.57143 3.56631H14.2857V27.852H8.57143V3.56631ZM37.1429 33.5663H2.85714V7.85202H5.71429V27.852C5.71504 28.6096 6.0163 29.3358 6.55196 29.8715C7.08761 30.4072 7.8139 30.7084 8.57143 30.7092H14.2857C15.0432 30.7084 15.7695 30.4072 16.3052 29.8715C16.8408 29.3358 17.1421 28.6096 17.1429 27.852V7.85202H37.1429V33.5663Z" fill="#27ABC1"/>
</svg>
