<svg width="40" height="42" viewBox="0 0 40 42" fill="none" xmlns="http://www.w3.org/2000/svg">
<path fill-rule="evenodd" clip-rule="evenodd" d="M19.9989 19.7684C21.6321 19.7684 23.1984 19.1196 24.3533 17.9648C25.5081 16.8099 26.1569 15.2436 26.1569 13.6104C26.1569 11.9772 25.5081 10.4108 24.3533 9.25598C23.1984 8.10112 21.6321 7.45233 19.9989 7.45233C18.3656 7.45233 16.7993 8.10112 15.6445 9.25598C14.4896 10.4108 13.8408 11.9772 13.8408 13.6104C13.8408 15.2436 14.4896 16.8099 15.6445 17.9648C16.7993 19.1196 18.3656 19.7684 19.9989 19.7684ZM19.9989 12.3788C20.3255 12.3788 20.6388 12.5085 20.8697 12.7395C21.1007 12.9705 21.2305 13.2837 21.2305 13.6104C21.2305 13.937 21.1007 14.2503 20.8697 14.4813C20.6388 14.7122 20.3255 14.842 19.9989 14.842C19.6722 14.842 19.359 14.7122 19.128 14.4813C18.897 14.2503 18.7673 13.937 18.7673 13.6104C18.7673 13.2837 18.897 12.9705 19.128 12.7395C19.359 12.5085 19.6722 12.3788 19.9989 12.3788Z" fill="#27ABC1"/>
<path fill-rule="evenodd" clip-rule="evenodd" d="M7.68359 13.0832C7.68359 20.2586 14.5929 32.0845 19.9997 32.0845C25.4064 32.0845 32.3158 20.2586 32.3158 13.0832C32.3158 5.92514 26.84 0.0626831 19.9997 0.0626831C13.1593 0.0626831 7.68359 5.9276 7.68359 13.0832ZM27.3893 13.0832C27.3893 17.8964 21.9776 27.1581 19.9997 27.1581C18.0217 27.1581 12.61 17.8964 12.61 13.0832C12.61 8.57556 15.96 4.98912 19.9997 4.98912C24.0393 4.98912 27.3893 8.57556 27.3893 13.0832Z" fill="#27ABC1"/>
<path d="M29.1878 19.7685C28.5345 19.7685 27.908 19.509 27.446 19.047C26.9841 18.5851 26.7246 17.9585 26.7246 17.3053C26.7246 16.652 26.9841 16.0254 27.446 15.5635C27.908 15.1016 28.5345 14.842 29.1878 14.842C30.8027 14.8423 32.373 15.3716 33.6586 16.3489C34.9442 17.3262 35.8742 18.6978 36.3065 20.2537L39.7304 32.5698C40.0354 33.6677 40.0823 34.8213 39.8676 35.9404C39.6528 37.0595 39.1822 38.1138 38.4924 39.0208C37.8027 39.9278 36.9125 40.6631 35.8915 41.169C34.8705 41.675 33.7463 41.938 32.6067 41.9374H7.38833C6.24924 41.9372 5.12561 41.6737 4.10522 41.1674C3.08482 40.6611 2.19528 39.9258 1.50608 39.0188C0.816878 38.1119 0.34667 37.0579 0.132184 35.9392C-0.0823027 34.8205 -0.0352602 33.6673 0.269637 32.5698L3.69104 20.2537C4.12341 18.6974 5.05383 17.3255 6.33991 16.3482C7.62599 15.3708 9.19689 14.8418 10.8122 14.842C11.4655 14.842 12.092 15.1016 12.554 15.5635C13.0159 16.0254 13.2754 16.652 13.2754 17.3053C13.2754 17.9585 13.0159 18.5851 12.554 19.047C12.092 19.509 11.4655 19.7685 10.8122 19.7685C10.2742 19.7687 9.75098 19.9451 9.32263 20.2707C8.89428 20.5963 8.58432 21.0532 8.44013 21.5715L5.01625 33.8876C4.91438 34.2539 4.89865 34.6387 4.97029 35.012C5.04194 35.3853 5.19901 35.737 5.42923 36.0395C5.65944 36.342 5.95654 36.5871 6.29727 36.7557C6.63801 36.9242 7.01312 37.0116 7.39326 37.011H32.6117C32.9914 37.0108 33.3659 36.9229 33.706 36.754C34.0461 36.5852 34.3426 36.34 34.5723 36.0376C34.8019 35.7352 34.9586 35.3838 35.0299 35.0108C35.1013 34.6379 35.0855 34.2535 34.9837 33.8876L31.5623 21.5715C31.418 21.0528 31.1077 20.5956 30.6789 20.2699C30.25 19.9443 29.7263 19.7682 29.1878 19.7685Z" fill="#27ABC1"/>
</svg>
