<svg width="40" height="44" viewBox="0 0 40 44" fill="none" xmlns="http://www.w3.org/2000/svg">
<path d="M20 21.9619C22.13 21.9619 24.2121 21.3303 25.9831 20.147C27.7541 18.9636 29.1344 17.2817 29.9495 15.3139C30.7646 13.3461 30.9778 11.1808 30.5623 9.09172C30.1468 7.0027 29.1211 5.08381 27.615 3.5777C26.1089 2.0716 24.19 1.04593 22.101 0.630395C20.0119 0.214861 17.8466 0.428128 15.8788 1.24323C13.911 2.05832 12.229 3.43864 11.0457 5.20963C9.86237 6.98062 9.23077 9.06274 9.23077 11.1927C9.23077 14.0489 10.3654 16.7881 12.385 18.8077C14.4046 20.8273 17.1438 21.9619 20 21.9619ZM20 25.0389C13.325 25.0389 0 29.1619 0 37.3465V43.5004H40V37.3465C40 29.1619 26.675 25.0389 20 25.0389Z" fill="#27ABC1"/>
</svg>
