<svg width="40" height="41" viewBox="0 0 40 41" fill="none" xmlns="http://www.w3.org/2000/svg">
<path d="M20 40.4235C16.0444 40.4235 12.1776 39.2505 8.8886 37.0529C5.59962 34.8552 3.03617 31.7317 1.52242 28.0771C0.00866566 24.4226 -0.387401 20.4013 0.384303 16.5217C1.15601 12.642 3.06082 9.07838 5.85787 6.28133C8.65492 3.48428 12.2186 1.57947 16.0982 0.807765C19.9778 0.036061 23.9992 0.432128 27.6537 1.94588C31.3082 3.45963 34.4318 6.02308 36.6294 9.31206C38.827 12.601 40 16.4678 40 20.4235C40 25.7278 37.8929 30.8149 34.1421 34.5656C30.3914 38.3163 25.3043 40.4235 20 40.4235ZM20 3.28061C16.6095 3.28061 13.2951 4.28602 10.4759 6.1697C7.65682 8.05339 5.45958 10.7307 4.16207 13.8632C2.86457 16.9956 2.52509 20.4425 3.18655 23.7679C3.84801 27.0933 5.48071 30.1478 7.87818 32.5453C10.2756 34.9428 13.3302 36.5755 16.6556 37.2369C19.981 37.8984 23.4278 37.5589 26.5603 36.2614C29.6927 34.9639 32.3701 32.7667 34.2538 29.9475C36.1374 27.1284 37.1429 23.814 37.1429 20.4235C37.1429 15.8769 35.3367 11.5165 32.1218 8.30164C28.9069 5.08673 24.5466 3.28061 20 3.28061Z" fill="#27ABC1"/>
<path d="M26.557 28.9949L18.5713 21.0092V7.56631H21.4284V19.8235L28.5713 26.9806L26.557 28.9949Z" fill="#27ABC1"/>
</svg>
